<?xml version="1.0" encoding="UTF-8"?>
<svg width="56px" height="55px" viewBox="0 0 56 55" version="1.1" xmlns="http://www.w3.org/2000/svg" xmlns:xlink="http://www.w3.org/1999/xlink">
    <title>Group 6</title>
    <g id="Page-2" stroke="none" stroke-width="1" fill="none" fill-rule="evenodd">
        <g id="Desktop-HD" transform="translate(-672.000000, -827.000000)">
            <g id="Footer" transform="translate(604.500000, 826.945000)">
                <g id="Group-6" transform="translate(68.000000, 0.055000)">
                    <circle id="Oval" fill="#DBE8FF" cx="27.5" cy="27.5" r="27.5"></circle>
                    <path d="M27.2211822,4.945 C15.0724096,4.945 5.221,15.0438686 5.221,27.5019787 C5.221,37.4682427 11.5247218,45.9235612 20.2660673,48.9062311 C21.3655663,49.1150367 21.769226,48.4169014 21.769226,47.8211145 C21.769226,47.2832254 21.7488245,45.5063235 21.7393523,43.6214703 C15.6188804,44.9859905 14.3273879,40.9600397 14.3273879,40.9600397 C13.3266179,38.3527715 11.8846638,37.6594922 11.8846638,37.6594922 C9.88858849,36.2594863 12.0351254,36.2882484 12.0351254,36.2882484 C14.2443244,36.4473739 15.4075783,38.6127513 15.4075783,38.6127513 C17.3697725,42.0612183 20.5542395,41.0642557 21.8096649,40.4878926 C22.007123,39.0299889 22.5772741,38.034894 23.206444,37.4716045 C18.3199029,36.9012179 13.1830782,34.9670582 13.1830782,26.3238521 C13.1830782,23.8611416 14.0424945,21.8489133 15.4498387,20.2692375 C15.221414,19.7010921 14.4683774,17.4068455 15.6629623,14.2997886 C15.6629623,14.2997886 17.5103976,13.6935427 21.714579,16.6119649 C23.4694786,16.1121762 25.3515237,15.8615348 27.2211822,15.8529435 C29.0908406,15.8615348 30.974343,16.1121762 32.7325214,16.6119649 C36.9316024,13.6935427 38.7764875,14.2997886 38.7764875,14.2997886 C39.973987,17.4068455 39.220586,19.7010921 38.9921613,20.2692375 C40.4027843,21.8489133 41.2563716,23.8611416 41.2563716,26.3238521 C41.2563716,34.9876026 36.1097104,36.8952414 31.2107827,37.4536749 C31.9998864,38.1536778 32.703012,39.5264157 32.703012,41.630907 C32.703012,44.6490627 32.67751,47.0781551 32.67751,47.8211145 C32.67751,48.4213838 33.0735191,49.1247486 34.1886837,48.9032429 C42.9252931,45.9172111 49.221,37.4648809 49.221,27.5019787 C49.221,15.0438686 39.3710476,4.945 27.2211822,4.945" id="Fill-5" fill="#FFFFFF"></path>
                </g>
            </g>
        </g>
    </g>
</svg>