<?xml version="1.0" encoding="UTF-8"?>
<svg width="162px" height="44px" viewBox="0 0 162 44" version="1.1" xmlns="http://www.w3.org/2000/svg" xmlns:xlink="http://www.w3.org/1999/xlink">
    <title>GitHub_Logo</title>
    <g id="Page-2" stroke="none" stroke-width="1" fill="none" fill-rule="evenodd">
        <g id="Desktop-HD" transform="translate(-620.000000, -890.000000)" fill="#11110F">
            <g id="Footer" transform="translate(604.500000, 826.945000)">
                <g id="GitHub_Logo" transform="translate(15.500000, 63.055000)">
                    <path d="M31.3607866,18.8325565 L17.6782743,18.8325565 C17.3252151,18.8325565 17.0390608,19.1184937 17.0390608,19.4717369 L17.0390608,26.1562532 C17.0390608,26.5085929 17.3252151,26.7958853 17.6782743,26.7958853 L23.0157515,26.7958853 L23.0157515,35.1007125 C23.0157515,35.1007125 21.8173393,35.5090651 18.5037366,35.5090651 C14.5947702,35.5090651 9.13388051,34.0820894 9.13388051,22.0826643 C9.13388051,10.0809806 14.8203484,8.50177607 20.1587297,8.50177607 C24.7801432,8.50177607 26.7705652,9.31441595 28.0376905,9.70650679 C28.4359558,9.82801881 28.8039329,9.43231423 28.8039329,9.0790711 L30.3300889,2.62086524 C30.3300889,2.45553662 30.2740334,2.25632918 30.0859762,2.12171735 C29.5715315,1.75492269 26.4328761,0 18.5037366,0 C9.36985605,0 0,3.88296409 0,22.5506437 C0,41.2183233 10.7273934,44 19.7672454,44 C27.2520095,44 31.7925043,40.8040983 31.7925043,40.8040983 C31.9796573,40.700655 32,40.4395622 32,40.3198571 L32,19.4717369 C32,19.1184937 31.7138458,18.8325565 31.3607866,18.8325565" id="Fill-11"></path>
                    <path d="M101,2.63353146 C101,2.2829061 100.717536,2 100.363551,2 L92.6492139,2 C92.2970396,2 92.0105019,2.2829061 92.0105019,2.63353146 C92.0105019,2.63531355 92.0127652,17.3067795 92.0127652,17.3067795 L79.9876875,17.3067795 L79.9876875,2.63353146 C79.9876875,2.2829061 79.7043184,2 79.3512388,2 L71.637354,2 C71.2865377,2 71,2.2829061 71,2.63353146 L71,42.3642409 C71,42.7148663 71.2865377,43 71.637354,43 L79.3512388,43 C79.7043184,43 79.9876875,42.7148663 79.9876875,42.3642409 L79.9876875,25.3702718 L92.0127652,25.3702718 C92.0127652,25.3702718 91.9914899,42.3629044 91.9914899,42.3642409 C91.9914899,42.7148663 92.2775749,43 92.6306546,43 L100.363099,43 C100.716631,43 100.999095,42.7148663 101,42.3642409 L101,2.63353146" id="Fill-13"></path>
                    <path d="M46,7.99864853 C46,5.23398504 43.7617509,3 40.9997725,3 C38.2405242,3 36,5.23398504 36,7.99864853 C36,10.7601586 38.2405242,13 40.9997725,13 C43.7617509,13 46,10.7601586 46,7.99864853" id="Fill-14"></path>
                    <path d="M45,33.9840633 C45,32.9650061 45,15.6334559 45,15.6334559 C45,15.2848546 44.7142642,15 44.3615094,15 L36.6683774,15 C36.3156226,15 36,15.3584086 36,15.7070099 C36,15.7070099 36,37.7883651 36,41.9974368 C36,42.7699766 36.4890566,43 37.1216604,43 C37.1216604,43 40.4055849,43 44.0526792,43 C44.813434,43 45,42.63223 45,41.9849549 C45,40.5758386 45,35.0552769 45,33.9840633" id="Fill-15"></path>
                    <path d="M130.362871,15 L122.759135,15 C122.41067,15 122.126502,15.2872177 122.126502,15.640509 L122.126502,35.2949209 C122.126502,35.2949209 120.194431,36.7076365 117.452572,36.7076365 C114.711163,36.7076365 113.983658,35.4639254 113.983658,32.7805298 C113.983658,30.0935383 113.983658,15.640509 113.983658,15.640509 C113.983658,15.2872177 113.700389,15 113.351025,15 L105.633532,15 C105.285517,15 105,15.2872177 105,15.640509 C105,15.640509 105,26.1071002 105,34.0781785 C105,42.0497063 109.444168,44 115.557821,44 C120.573921,44 124.617916,41.2298548 124.617916,41.2298548 C124.617916,41.2298548 124.810359,42.6897658 124.897588,42.8628156 C124.984367,43.0354159 125.211431,43.2098142 125.45693,43.2098142 L130.366468,43.1877896 C130.714483,43.1877896 131,42.9001224 131,42.5481796 L130.997302,15.640509 C130.997302,15.2872177 130.713584,15 130.362871,15" id="Fill-16"></path>
                    <path d="M148.244117,36.7442738 C145.599172,36.6645553 143.805063,35.4723608 143.805063,35.4723608 L143.805063,22.8244402 C143.805063,22.8244402 145.574823,21.746897 147.74633,21.5543186 C150.492276,21.3102367 153.138124,22.1338452 153.138124,28.6403071 C153.138124,35.5010237 151.944156,36.8553423 148.244117,36.7442738 Z M151.251582,14.2417147 C146.920743,14.2417147 143.975051,16.1612284 143.975051,16.1612284 L143.975051,2.63685221 C143.975051,2.284389 143.690987,2 143.341093,2 L135.634859,2 C135.284514,2 135,2.284389 135,2.63685221 L135,42.5758157 C135,42.928279 135.284514,43.2149072 135.635761,43.2149072 C135.636663,43.2149072 140.980662,43.2149072 140.982465,43.2149072 C141.223243,43.2149072 141.405404,43.0917466 141.540221,42.8758797 C141.673235,42.6613564 141.864865,41.034293 141.864865,41.034293 C141.864865,41.034293 145.015715,44 150.980595,44 C157.983885,44 162,40.471785 162,28.1615483 C162,15.8504159 155.585578,14.2417147 151.251582,14.2417147 L151.251582,14.2417147 Z" id="Fill-17"></path>
                    <path d="M67.2559168,15.020052 L61.4873542,15.020052 C61.4873542,15.020052 61.4787808,7.43230179 61.4787808,7.43095365 C61.4787808,7.14335163 61.3298739,7 60.9964127,7 L53.1359339,7 C52.829998,7 52.6662004,7.13391469 52.6662004,7.42645987 L52.6662004,15.2690075 C52.6662004,15.2690075 48.7269364,16.2162966 48.4602577,16.2926909 C48.1953839,16.3690852 48,16.6126482 48,16.9033958 L48,21.8317261 C48,22.1862855 48.2842768,22.47209 48.6357873,22.47209 L52.6662004,22.47209 C52.6662004,22.47209 52.6662004,27.6269068 52.6662004,34.3284833 C52.6662004,43.134947 58.8688491,44 63.0540352,44 C64.9668118,44 67.2545631,43.3883963 67.6322451,43.2495385 C67.860569,43.1659541 67.9932315,42.9300306 67.9932315,42.6747838 L68,37.2534857 C68,36.8998251 67.6999301,36.6135712 67.3624078,36.6135712 C67.025788,36.6135712 66.1661891,36.7497328 65.28087,36.7497328 C62.4471268,36.7497328 61.4873542,35.4375486 61.4873542,33.7393485 C61.4873542,32.0424966 61.486903,22.47209 61.486903,22.47209 L67.2559168,22.47209 C67.6074273,22.47209 67.8921553,22.1862855 67.8921553,21.8317261 L67.8921553,15.6586183 C67.8921553,15.3049577 67.6074273,15.020052 67.2559168,15.020052" id="Fill-18"></path>
                </g>
            </g>
        </g>
    </g>
</svg>