<?xml version="1.0" encoding="UTF-8"?>
<svg width="30px" height="31px" viewBox="0 0 30 31" version="1.1" xmlns="http://www.w3.org/2000/svg" xmlns:xlink="http://www.w3.org/1999/xlink">
    <title>usr</title>
    <g id="Page-2" stroke="none" stroke-width="1" fill="none" fill-rule="evenodd">
        <g id="Desktop-HD" transform="translate(-1198.000000, -412.000000)" fill="#FFFFFF" fill-rule="nonzero">
            <g id="Login-Form" transform="translate(862.000000, 252.000000)">
                <g id="usr" transform="translate(336.236328, 160.298828)">
                    <path d="M14.0273438,14.5371094 C17.6132812,14.5371094 20.6894531,11.3203125 20.6894531,7.171875 C20.6894531,3.07617188 17.5957031,0 14.0273438,0 C10.4414062,0 7.34765625,3.14648438 7.34765625,7.20703125 C7.36523438,11.3203125 10.4238281,14.5371094 14.0273438,14.5371094 Z" id="Path"></path>
                    <path d="M24.4335938,29.953125 C27.0878906,29.953125 28.0195312,29.1796875 28.0195312,27.703125 C28.0195312,23.4140625 22.640625,17.5078125 14.0097656,17.5078125 C5.39648438,17.5078125 0,23.4140625 0,27.703125 C0,29.1796875 0.931640625,29.953125 3.60351563,29.953125 L24.4335938,29.953125 Z" id="Path"></path>
                </g>
            </g>
        </g>
    </g>
</svg>